<svg xmlns="http://www.w3.org/2000/svg" width="45.229" height="51" viewBox="0 0 45.229 51">
  <path id="ic-completed-visits" d="M35.335,51q0-7.168-.1-7.774a8.239,8.239,0,0,0-.252-1.313A4.888,4.888,0,0,0,33.517,40.3a14.135,14.135,0,0,0-3.836-2.12q-.3-.1-.959-.353t-.959-.354a6.512,6.512,0,0,0,.706-.4q.3-.2.505-.353a.68.68,0,0,0,.252-.454,3.074,3.074,0,0,0,.05-.454V34.645a3.5,3.5,0,0,0-.606-1.867,7.812,7.812,0,0,1-.908-2.877,3.908,3.908,0,0,0-.354-1.111,9.271,9.271,0,0,1-.555-1.716,1.769,1.769,0,0,1-.05-1.11,5.385,5.385,0,0,0,.151-.707,8.231,8.231,0,0,0-.1-1.01,8.745,8.745,0,0,1-.1-1.211A5.153,5.153,0,0,1,28.066,19.6a5.276,5.276,0,0,1,4.442-1.817A5.356,5.356,0,0,1,37,19.653a5.128,5.128,0,0,1,1.363,3.382,8.735,8.735,0,0,1-.1,1.211,8.174,8.174,0,0,0-.1,1.01,2.408,2.408,0,0,0,.152.656,1.991,1.991,0,0,1-.05,1.161,9.269,9.269,0,0,1-.555,1.716,3.908,3.908,0,0,0-.354,1.111,7.634,7.634,0,0,1-.959,2.928,3.436,3.436,0,0,0-.656,1.817q0,2.12.505,2.524.2.1,3.432,1.413,5.149,1.918,5.351,3.331l.2,9.086Zm-18.98,0H0q0-6.562.2-7.774.4-1.817,6.966-4.341,4.038-1.514,4.543-2.07t.5-3.483a3.039,3.039,0,0,0-.808-1.969A7.461,7.461,0,0,1,10.2,27.881a3.679,3.679,0,0,0-.454-1.413,7.737,7.737,0,0,1-.656-2.221,3.12,3.12,0,0,1-.05-1.464,5.008,5.008,0,0,0,.152-.858q-.2-1.414-.3-2.928a6.247,6.247,0,0,1,1.666-4.392q1.867-2.373,5.8-2.373t5.856,2.423Q24.128,17.079,23.927,19q-.1,1.514-.3,2.928a3.307,3.307,0,0,0,.2.808,2.858,2.858,0,0,1,0,1.515,6.536,6.536,0,0,1-.707,2.221,3.234,3.234,0,0,0-.5,1.413A7.457,7.457,0,0,1,21.4,31.364a3.039,3.039,0,0,0-.808,1.969v2.019a3.061,3.061,0,0,0,.3,1.111,1.7,1.7,0,0,0,.909.959q.606.252,1.918.757.3.1,1.918.707,6.562,2.524,6.966,4.341a35.388,35.388,0,0,1,.2,4.745V51ZM26.706,14.188V1.478C26.706.5,27.1,0,27.889,0H39.418a1.424,1.424,0,0,1,1.035.444A1.424,1.424,0,0,1,40.9,1.478v8.868a1.515,1.515,0,0,1-1.478,1.478H29.071l-2.364,2.364h0ZM31.46,5.809l-.658.666-.026.026a.159.159,0,0,0-.026.107.11.11,0,0,0,.026.079l.053.027,2.079,2.023a.148.148,0,0,0,.263,0l3.657-4.765a.11.11,0,0,0,.026-.08.157.157,0,0,0-.026-.106l-.816-.639a.15.15,0,0,0-.105-.027.105.105,0,0,0-.079.027l-2.92,3.807q-1.158-1.118-1.184-1.145a.227.227,0,0,0-.158-.08C31.547,5.729,31.513,5.756,31.46,5.809Z"/>
</svg>
